<?xml version="1.0" encoding="UTF-8"?>
<!DOCTYPE svg PUBLIC "-//W3C//DTD SVG 1.1//EN" "http://www.w3.org/Graphics/SVG/1.1/DTD/svg11.dtd">
<svg xmlns="http://www.w3.org/2000/svg" version="1.1" width="226px" height="223px" style="shape-rendering:geometricPrecision; text-rendering:geometricPrecision; image-rendering:optimizeQuality; fill-rule:evenodd; clip-rule:evenodd" xmlns:xlink="http://www.w3.org/1999/xlink">
<g><path style="opacity:1" fill="#fefdfd" d="M 162.5,-0.5 C 183.5,-0.5 204.5,-0.5 225.5,-0.5C 225.5,73.8333 225.5,148.167 225.5,222.5C 182.167,222.5 138.833,222.5 95.5,222.5C 95.5789,220.334 96.2455,218.334 97.5,216.5C 96.9628,215.259 96.2961,214.092 95.5,213C 95.8333,212.5 96.1667,212 96.5,211.5C 98.0709,212.309 99.7376,212.643 101.5,212.5C 101.5,214.5 101.5,216.5 101.5,218.5C 102.5,218.5 103.5,218.5 104.5,218.5C 104.753,216.173 104.086,214.173 102.5,212.5C 104.095,211.566 105.761,211.566 107.5,212.5C 109.392,216.168 112.392,217.335 116.5,216C 120.824,209.851 124.49,203.351 127.5,196.5C 139.59,176.659 150.924,156.325 161.5,135.5C 174.008,114.488 186.008,93.155 197.5,71.5C 201.623,64.6065 205.789,57.6065 210,50.5C 212.409,45.0995 214.909,39.7662 217.5,34.5C 220.977,31.7343 221.31,28.5677 218.5,25C 217,24.8333 215.5,24.6667 214,24.5C 200.451,26.7856 186.951,29.119 173.5,31.5C 167.434,32.6721 161.434,34.0055 155.5,35.5C 157.461,28.9534 158.794,22.2867 159.5,15.5C 160.915,11.8737 162.582,8.20699 164.5,4.5C 163.813,2.82277 163.146,1.15611 162.5,-0.5 Z"/></g>
<g><path style="opacity:1" fill="rgba(255, 255, 255,0.3)" d="M 159.5,-0.5 C 160.5,-0.5 161.5,-0.5 162.5,-0.5C 163.146,1.15611 163.813,2.82277 164.5,4.5C 162.582,8.20699 160.915,11.8737 159.5,15.5C 158.666,14.2521 157.333,13.5854 155.5,13.5C 149.391,13.7358 145.391,14.4025 143.5,15.5C 143.5,17.1667 143.5,18.8333 143.5,20.5C 140.833,20.5 138.167,20.5 135.5,20.5C 135.5,21.5 135.5,22.5 135.5,23.5C 127.5,23.5 119.5,23.5 111.5,23.5C 111.5,24.5 111.5,25.5 111.5,26.5C 106.167,26.5 100.833,26.5 95.5,26.5C 95.6658,31.1785 95.4992,35.8452 95,40.5C 94.6667,40.1667 94.3333,39.8333 94,39.5C 93.6667,34.5 93.3333,29.5 93,24.5C 92.2462,21.1818 91.0795,18.1818 89.5,15.5C 95.3108,13.3991 101.311,11.5658 107.5,10C 118.134,8.26192 128.801,6.59525 139.5,5C 146.545,3.5819 153.212,1.74857 159.5,-0.5 Z"/></g>
<g><path style="opacity:1" fill="rgba(255, 255, 255,0.3)" d="M 159.5,15.5 C 158.794,22.2867 157.461,28.9534 155.5,35.5C 154.883,35.6107 154.383,35.944 154,36.5C 153.255,41.393 151.922,46.0597 150,50.5C 149.22,52.3869 149.387,54.0536 150.5,55.5C 150.577,56.7498 151.244,57.5831 152.5,58C 151.833,58.1667 151.167,58.3333 150.5,58.5C 148.653,57.8141 146.986,56.8141 145.5,55.5C 142.198,54.9184 138.865,54.5851 135.5,54.5C 122.179,55.3329 108.846,55.6663 95.5,55.5C 95.6567,54.1266 95.49,52.7932 95,51.5C 94.8265,55.5408 94.3265,59.5408 93.5,63.5C 91.4339,59.0854 91.1006,54.5854 92.5,50C 91.6921,48.2942 90.3588,47.4609 88.5,47.5C 88.4974,58.2081 87.8307,68.8748 86.5,79.5C 85.6858,77.2338 85.1858,74.9005 85,72.5C 84.6667,72.1667 84.3333,71.8333 84,71.5C 83.5831,72.756 82.7498,73.4226 81.5,73.5C 81.5,72.1667 81.5,70.8333 81.5,69.5C 81.3496,60.1425 81.683,50.8092 82.5,41.5C 83.493,33.0161 83.8264,24.3494 83.5,15.5C 85.5,15.5 87.5,15.5 89.5,15.5C 91.0795,18.1818 92.2462,21.1818 93,24.5C 93.3333,29.5 93.6667,34.5 94,39.5C 94.3333,39.8333 94.6667,40.1667 95,40.5C 95.4992,35.8452 95.6658,31.1785 95.5,26.5C 100.833,26.5 106.167,26.5 111.5,26.5C 111.5,25.5 111.5,24.5 111.5,23.5C 119.5,23.5 127.5,23.5 135.5,23.5C 135.5,22.5 135.5,21.5 135.5,20.5C 138.167,20.5 140.833,20.5 143.5,20.5C 143.5,18.8333 143.5,17.1667 143.5,15.5C 145.391,14.4025 149.391,13.7358 155.5,13.5C 157.333,13.5854 158.666,14.2521 159.5,15.5 Z"/></g>
<g><path style="opacity:1" fill="#000" d="M 31.5,28.5 C 34.0232,29.3844 36.6898,30.2177 39.5,31C 36.854,31.4974 34.1873,31.6641 31.5,31.5C 31.5,33.5 31.5,35.5 31.5,37.5C 25.8858,38.4732 20.8858,40.8066 16.5,44.5C 15.7492,43.624 15.2492,42.624 15,41.5C 14.5099,43.5454 14.6765,45.5454 15.5,47.5C 11.3019,42.8109 7.80187,37.4776 5,31.5C 3.83265,26.2992 5.99932,23.9659 11.5,24.5C 18.3726,25.4745 25.0393,26.8078 31.5,28.5 Z"/></g>
<g><path style="opacity:1" fill="#000" d="M 217.5,34.5 C 217.785,32.712 217.452,31.0453 216.5,29.5C 211.887,30.2787 207.22,30.7787 202.5,31C 200.743,33.8456 198.743,36.5122 196.5,39C 192.623,41.1052 188.623,42.9385 184.5,44.5C 183.236,46.2915 182.569,48.2915 182.5,50.5C 183.826,58.2171 182.826,58.8838 179.5,52.5C 178.378,54.0436 178.711,55.377 180.5,56.5C 179.889,59.8389 178.222,60.8389 175.5,59.5C 178.757,55.1842 177.757,52.5175 172.5,51.5C 171.761,51.631 171.094,51.4643 170.5,51C 171.5,50 172.5,49 173.5,48C 171.189,48.1554 168.856,48.1554 166.5,48C 169.002,45.788 172.002,44.9547 175.5,45.5C 175.5,44.5 175.5,43.5 175.5,42.5C 172.794,42.5751 170.127,42.9084 167.5,43.5C 167.5,42.1667 167.5,40.8333 167.5,39.5C 170.127,38.9084 172.794,38.5751 175.5,38.5C 175.5,37.5 175.5,36.5 175.5,35.5C 167.527,35.3263 167.527,34.8263 175.5,34C 173.065,33.9252 172.398,33.0919 173.5,31.5C 186.951,29.119 200.451,26.7856 214,24.5C 215.5,24.6667 217,24.8333 218.5,25C 221.31,28.5677 220.977,31.7343 217.5,34.5 Z"/></g>
<g><path style="opacity:1" fill="#000" d="M 217.5,34.5 C 214.909,39.7662 212.409,45.0995 210,50.5C 205.789,57.6065 201.623,64.6065 197.5,71.5C 197.678,70.3052 198.011,69.1385 198.5,68C 198.167,67.5 197.833,67 197.5,66.5C 195.633,69.2291 194.633,68.8957 194.5,65.5C 190.767,65.87 187.101,66.5367 183.5,67.5C 183.5,68.8333 183.5,70.1667 183.5,71.5C 180.339,72.4698 177.506,74.1365 175,76.5C 174.692,75.6919 174.192,75.0253 173.5,74.5C 173.003,76.216 172.669,77.8827 172.5,79.5C 171.147,78.3147 169.98,76.9814 169,75.5C 168.405,76.8989 168.572,78.2322 169.5,79.5C 169.062,80.5063 168.396,80.5063 167.5,79.5C 166.833,83.5 166.167,87.5 165.5,91.5C 165.218,88.9433 165.051,86.2766 165,83.5C 164.617,84.056 164.117,84.3893 163.5,84.5C 167.502,76.1543 171.502,67.821 175.5,59.5C 178.222,60.8389 179.889,59.8389 180.5,56.5C 178.711,55.377 178.378,54.0436 179.5,52.5C 182.826,58.8838 183.826,58.2171 182.5,50.5C 182.569,48.2915 183.236,46.2915 184.5,44.5C 188.623,42.9385 192.623,41.1052 196.5,39C 198.743,36.5122 200.743,33.8456 202.5,31C 207.22,30.7787 211.887,30.2787 216.5,29.5C 217.452,31.0453 217.785,32.712 217.5,34.5 Z"/></g>
<g><path style="opacity:1" fill="#000" d="M 31.5,28.5 C 40.7733,29.4099 49.7733,31.0766 58.5,33.5C 57.448,33.3505 56.448,33.5172 55.5,34C 58.7527,35.0365 62.086,35.7031 65.5,36C 62.9556,37.092 60.2889,37.7586 57.5,38C 54.635,40.2863 51.3017,41.1197 47.5,40.5C 47.8087,43.3455 49.4754,44.8455 52.5,45C 46.1041,44.9021 40.1041,46.2354 34.5,49C 35.5,49.3333 36.5,49.6667 37.5,50C 35.7505,51.3186 33.7505,51.8186 31.5,51.5C 31.9682,54.9423 30.8016,57.609 28,59.5C 27.8466,62.1506 27.0133,64.4839 25.5,66.5C 20.8533,60.8739 17.52,54.5406 15.5,47.5C 14.6765,45.5454 14.5099,43.5454 15,41.5C 15.2492,42.624 15.7492,43.624 16.5,44.5C 20.8858,40.8066 25.8858,38.4732 31.5,37.5C 31.5,35.5 31.5,33.5 31.5,31.5C 34.1873,31.6641 36.854,31.4974 39.5,31C 36.6898,30.2177 34.0232,29.3844 31.5,28.5 Z"/></g>
<g><path style="opacity:1" fill="#fefefd" d="M -0.5,-0.5 C 52.8333,-0.5 106.167,-0.5 159.5,-0.5C 153.212,1.74857 146.545,3.5819 139.5,5C 128.801,6.59525 118.134,8.26192 107.5,10C 101.311,11.5658 95.3108,13.3991 89.5,15.5C 87.5,15.5 85.5,15.5 83.5,15.5C 83.8264,24.3494 83.493,33.0161 82.5,41.5C 82.5,39.8333 82.5,38.1667 82.5,36.5C 74.5273,35.2823 66.5273,34.2823 58.5,33.5C 49.7733,31.0766 40.7733,29.4099 31.5,28.5C 25.0393,26.8078 18.3726,25.4745 11.5,24.5C 5.99932,23.9659 3.83265,26.2992 5,31.5C 7.80187,37.4776 11.3019,42.8109 15.5,47.5C 17.52,54.5406 20.8533,60.8739 25.5,66.5C 26.7738,69.7598 28.4405,72.7598 30.5,75.5C 32.0435,80.0242 34.3768,84.0242 37.5,87.5C 38.4718,90.4366 39.8052,93.1033 41.5,95.5C 44.3718,101.27 47.7051,106.604 51.5,111.5C 56.0241,121.222 61.0241,130.556 66.5,139.5C 68.8483,143.535 71.1816,147.535 73.5,151.5C 77.6611,159.826 82.3277,167.826 87.5,175.5C 88.7738,178.76 90.4405,181.76 92.5,184.5C 97.5286,193.85 102.529,203.184 107.5,212.5C 105.761,211.566 104.095,211.566 102.5,212.5C 104.086,214.173 104.753,216.173 104.5,218.5C 103.5,218.5 102.5,218.5 101.5,218.5C 101.5,216.5 101.5,214.5 101.5,212.5C 99.7376,212.643 98.0709,212.309 96.5,211.5C 96.1667,212 95.8333,212.5 95.5,213C 96.2961,214.092 96.9628,215.259 97.5,216.5C 96.2455,218.334 95.5789,220.334 95.5,222.5C 63.5,222.5 31.5,222.5 -0.5,222.5C -0.5,148.167 -0.5,73.8333 -0.5,-0.5 Z"/></g>
<g><path style="opacity:1" fill="#000" d="M 173.5,31.5 C 172.398,33.0919 173.065,33.9252 175.5,34C 167.527,34.8263 167.527,35.3263 175.5,35.5C 175.5,36.5 175.5,37.5 175.5,38.5C 172.794,38.5751 170.127,38.9084 167.5,39.5C 167.5,40.8333 167.5,42.1667 167.5,43.5C 170.127,42.9084 172.794,42.5751 175.5,42.5C 175.5,43.5 175.5,44.5 175.5,45.5C 172.002,44.9547 169.002,45.788 166.5,48C 168.856,48.1554 171.189,48.1554 173.5,48C 172.5,49 171.5,50 170.5,51C 171.094,51.4643 171.761,51.631 172.5,51.5C 165.455,53.8331 158.121,55.1664 150.5,55.5C 149.387,54.0536 149.22,52.3869 150,50.5C 151.922,46.0597 153.255,41.393 154,36.5C 154.383,35.944 154.883,35.6107 155.5,35.5C 161.434,34.0055 167.434,32.6721 173.5,31.5 Z"/></g>
<g><path style="opacity:1" fill="#000" d="M 79.5,50.5 C 79.5,51.8333 79.5,53.1667 79.5,54.5C 73.4538,54.3363 68.2872,56.3363 64,60.5C 63.5172,61.448 63.3505,62.448 63.5,63.5C 61.396,63.2011 59.396,63.5344 57.5,64.5C 54.1421,70.0246 49.6421,74.358 44,77.5C 43.6886,78.7425 44.1886,79.7425 45.5,80.5C 43.9564,81.6224 42.623,81.289 41.5,79.5C 40.5481,81.0453 40.2148,82.712 40.5,84.5C 39.5,84.5 38.5,84.5 37.5,84.5C 37.5,85.5 37.5,86.5 37.5,87.5C 34.3768,84.0242 32.0435,80.0242 30.5,75.5C 33.5773,73.3083 36.4107,70.6416 39,67.5C 39.1402,65.4787 39.3068,63.6453 39.5,62C 35.81,61.5756 35.6433,60.7423 39,59.5C 39.49,58.2068 39.6567,56.8734 39.5,55.5C 43.4264,55.7682 47.093,54.9349 50.5,53C 49.8333,52.6667 49.1667,52.3333 48.5,52C 50.0249,50.9914 51.6916,50.4914 53.5,50.5C 53.5,49.5 53.5,48.5 53.5,47.5C 56.8499,47.665 60.1832,47.4983 63.5,47C 61.0481,46.7105 58.7148,46.0438 56.5,45C 60.8592,43.7726 65.1926,42.4393 69.5,41C 66.1182,40.8236 62.7848,40.3236 59.5,39.5C 61.5984,38.5505 63.765,38.5505 66,39.5C 70.2715,37.5887 74.7715,37.0887 79.5,38C 79.8333,38.3333 80.1667,38.6667 80.5,39C 79.5,39.3333 78.5,39.6667 77.5,40C 79.1066,41.049 79.7733,42.549 79.5,44.5C 78.1266,44.3433 76.7932,44.51 75.5,45C 76.3079,46.7058 77.6412,47.5391 79.5,47.5C 79.5,48.5 79.5,49.5 79.5,50.5 Z"/></g>
<g><path style="opacity:1" fill="#000" d="M 79.5,50.5 C 80.4849,54.6344 80.8182,58.9677 80.5,63.5C 79.2101,64.0577 78.3768,65.0577 78,66.5C 77.6667,65.8333 77.3333,65.1667 77,64.5C 75.5778,64.5943 74.0778,64.9276 72.5,65.5C 71.9067,67.3817 71.2401,69.2151 70.5,71C 68.1902,71.4966 65.8568,71.6633 63.5,71.5C 63.9763,77.8549 60.9763,80.6882 54.5,80C 53.0226,82.1485 51.0226,83.4818 48.5,84C 47.842,86.7268 46.6754,89.2268 45,91.5C 43.9887,92.3366 42.8221,92.67 41.5,92.5C 41.5,93.5 41.5,94.5 41.5,95.5C 39.8052,93.1033 38.4718,90.4366 37.5,87.5C 37.5,86.5 37.5,85.5 37.5,84.5C 38.5,84.5 39.5,84.5 40.5,84.5C 40.2148,82.712 40.5481,81.0453 41.5,79.5C 42.623,81.289 43.9564,81.6224 45.5,80.5C 44.1886,79.7425 43.6886,78.7425 44,77.5C 49.6421,74.358 54.1421,70.0246 57.5,64.5C 59.396,63.5344 61.396,63.2011 63.5,63.5C 63.3505,62.448 63.5172,61.448 64,60.5C 68.2872,56.3363 73.4538,54.3363 79.5,54.5C 79.5,53.1667 79.5,51.8333 79.5,50.5 Z"/></g>
<g><path style="opacity:1" fill="#000" d="M 58.5,33.5 C 66.5273,34.2823 74.5273,35.2823 82.5,36.5C 82.5,38.1667 82.5,39.8333 82.5,41.5C 81.683,50.8092 81.3496,60.1425 81.5,69.5C 81.1667,69.5 80.8333,69.5 80.5,69.5C 80.5,67.5 80.5,65.5 80.5,63.5C 80.8182,58.9677 80.4849,54.6344 79.5,50.5C 79.5,49.5 79.5,48.5 79.5,47.5C 77.6412,47.5391 76.3079,46.7058 75.5,45C 76.7932,44.51 78.1266,44.3433 79.5,44.5C 79.7733,42.549 79.1066,41.049 77.5,40C 78.5,39.6667 79.5,39.3333 80.5,39C 80.1667,38.6667 79.8333,38.3333 79.5,38C 74.7715,37.0887 70.2715,37.5887 66,39.5C 63.765,38.5505 61.5984,38.5505 59.5,39.5C 62.7848,40.3236 66.1182,40.8236 69.5,41C 65.1926,42.4393 60.8592,43.7726 56.5,45C 58.7148,46.0438 61.0481,46.7105 63.5,47C 60.1832,47.4983 56.8499,47.665 53.5,47.5C 53.5,48.5 53.5,49.5 53.5,50.5C 51.6916,50.4914 50.0249,50.9914 48.5,52C 49.1667,52.3333 49.8333,52.6667 50.5,53C 47.093,54.9349 43.4264,55.7682 39.5,55.5C 39.6567,56.8734 39.49,58.2068 39,59.5C 35.6433,60.7423 35.81,61.5756 39.5,62C 39.3068,63.6453 39.1402,65.4787 39,67.5C 36.4107,70.6416 33.5773,73.3083 30.5,75.5C 28.4405,72.7598 26.7738,69.7598 25.5,66.5C 27.0133,64.4839 27.8466,62.1506 28,59.5C 30.8016,57.609 31.9682,54.9423 31.5,51.5C 33.7505,51.8186 35.7505,51.3186 37.5,50C 36.5,49.6667 35.5,49.3333 34.5,49C 40.1041,46.2354 46.1041,44.9021 52.5,45C 49.4754,44.8455 47.8087,43.3455 47.5,40.5C 51.3017,41.1197 54.635,40.2863 57.5,38C 60.2889,37.7586 62.9556,37.092 65.5,36C 62.086,35.7031 58.7527,35.0365 55.5,34C 56.448,33.5172 57.448,33.3505 58.5,33.5 Z"/></g>
<g><path style="opacity:1" fill="rgba(255, 255, 255,0.3)" d="M 150.5,55.5 C 158.121,55.1664 165.455,53.8331 172.5,51.5C 177.757,52.5175 178.757,55.1842 175.5,59.5C 171.502,67.821 167.502,76.1543 163.5,84.5C 161.642,86.8831 160.308,89.5498 159.5,92.5C 154.84,88.381 152.173,89.7143 151.5,96.5C 150.5,96.5 149.5,96.5 148.5,96.5C 148.719,97.675 148.386,98.675 147.5,99.5C 147.167,98.8333 146.833,98.1667 146.5,97.5C 146.931,94.7146 146.931,92.0479 146.5,89.5C 147.719,90.2634 148.719,91.2634 149.5,92.5C 149.447,88.3468 151.447,86.0134 155.5,85.5C 159.039,88.1555 160.539,87.1555 160,82.5C 159.692,83.3081 159.192,83.9747 158.5,84.5C 155.642,81.122 152.309,80.622 148.5,83C 147.833,85 146.5,86.3333 144.5,87C 134.461,87.1711 124.628,88.6711 115,91.5C 111.927,91.5195 109.093,90.8528 106.5,89.5C 106.5,90.5 106.5,91.5 106.5,92.5C 107.5,92.5 108.5,92.5 109.5,92.5C 109.598,95.2476 108.598,95.9143 106.5,94.5C 101.819,94.6686 97.1522,95.0019 92.5,95.5C 88.3642,97.1834 84.0309,97.8501 79.5,97.5C 79.5,93.1667 79.5,88.8333 79.5,84.5C 81.4136,81.3157 82.0803,77.649 81.5,73.5C 82.7498,73.4226 83.5831,72.756 84,71.5C 84.3333,71.8333 84.6667,72.1667 85,72.5C 85.1858,74.9005 85.6858,77.2338 86.5,79.5C 87.8307,68.8748 88.4974,58.2081 88.5,47.5C 90.3588,47.4609 91.6921,48.2942 92.5,50C 91.1006,54.5854 91.4339,59.0854 93.5,63.5C 94.3265,59.5408 94.8265,55.5408 95,51.5C 95.49,52.7932 95.6567,54.1266 95.5,55.5C 108.846,55.6663 122.179,55.3329 135.5,54.5C 138.865,54.5851 142.198,54.9184 145.5,55.5C 146.986,56.8141 148.653,57.8141 150.5,58.5C 151.167,58.3333 151.833,58.1667 152.5,58C 151.244,57.5831 150.577,56.7498 150.5,55.5 Z"/></g>
<g><path style="opacity:1" fill="rgba(255, 255, 255,0.3)" d="M 80.5,69.5 C 80.8333,69.5 81.1667,69.5 81.5,69.5C 81.5,70.8333 81.5,72.1667 81.5,73.5C 82.0803,77.649 81.4136,81.3157 79.5,84.5C 79.5,82.8333 79.5,81.1667 79.5,79.5C 79.3424,76.0977 79.6758,72.7644 80.5,69.5 Z"/></g>
<g><path style="opacity:1" fill="#000" d="M 80.5,63.5 C 80.5,65.5 80.5,67.5 80.5,69.5C 79.6758,72.7644 79.3424,76.0977 79.5,79.5C 76.9001,82.9627 74.4001,86.6293 72,90.5C 71.6667,88.8333 71.3333,87.1667 71,85.5C 70.3333,86.8333 69.6667,86.8333 69,85.5C 66.6142,89.6043 64.7809,93.9377 63.5,98.5C 62.5,98.5 61.5,98.5 60.5,98.5C 60.5,97.5 60.5,96.5 60.5,95.5C 58.8333,95.5 57.1667,95.5 55.5,95.5C 55.9662,97.2012 55.9662,98.7012 55.5,100C 56.5786,100.956 57.7453,101.789 59,102.5C 59.7382,106.71 59.5715,110.876 58.5,115C 58.6387,116.301 59.3054,117.134 60.5,117.5C 61.0138,119.512 61.1805,121.512 61,123.5C 57.5772,119.477 56.4105,114.977 57.5,110C 53.6147,101.099 51.6147,101.599 51.5,111.5C 47.7051,106.604 44.3718,101.27 41.5,95.5C 41.5,94.5 41.5,93.5 41.5,92.5C 42.8221,92.67 43.9887,92.3366 45,91.5C 46.6754,89.2268 47.842,86.7268 48.5,84C 51.0226,83.4818 53.0226,82.1485 54.5,80C 60.9763,80.6882 63.9763,77.8549 63.5,71.5C 65.8568,71.6633 68.1902,71.4966 70.5,71C 71.2401,69.2151 71.9067,67.3817 72.5,65.5C 74.0778,64.9276 75.5778,64.5943 77,64.5C 77.3333,65.1667 77.6667,65.8333 78,66.5C 78.3768,65.0577 79.2101,64.0577 80.5,63.5 Z"/></g>
<g><path style="opacity:1" fill="#000" d="M 79.5,79.5 C 79.5,81.1667 79.5,82.8333 79.5,84.5C 79.5,88.8333 79.5,93.1667 79.5,97.5C 84.0309,97.8501 88.3642,97.1834 92.5,95.5C 93.0577,96.7899 94.0577,97.6232 95.5,98C 94.5,98.5 93.5,99 92.5,99.5C 89.1769,98.2429 85.8435,98.2429 82.5,99.5C 85.3043,100.105 87.971,100.938 90.5,102C 86.8086,102.42 83.1419,102.92 79.5,103.5C 79.719,102.325 79.3857,101.325 78.5,100.5C 73.8762,102.623 70.8762,106.123 69.5,111C 66.854,111.497 64.1873,111.664 61.5,111.5C 61.6747,113.621 61.3414,115.621 60.5,117.5C 59.3054,117.134 58.6387,116.301 58.5,115C 59.5715,110.876 59.7382,106.71 59,102.5C 57.7453,101.789 56.5786,100.956 55.5,100C 55.9662,98.7012 55.9662,97.2012 55.5,95.5C 57.1667,95.5 58.8333,95.5 60.5,95.5C 60.5,96.5 60.5,97.5 60.5,98.5C 61.5,98.5 62.5,98.5 63.5,98.5C 64.7809,93.9377 66.6142,89.6043 69,85.5C 69.6667,86.8333 70.3333,86.8333 71,85.5C 71.3333,87.1667 71.6667,88.8333 72,90.5C 74.4001,86.6293 76.9001,82.9627 79.5,79.5 Z"/></g>
<g><path style="opacity:1" fill="#000" d="M 197.5,71.5 C 186.008,93.155 174.008,114.488 161.5,135.5C 161.357,133.738 161.691,132.071 162.5,130.5C 161.975,129.808 161.308,129.308 160.5,129C 161.211,126.204 161.878,123.37 162.5,120.5C 162.833,120.167 163.167,119.833 163.5,119.5C 164.695,121.297 166.362,122.297 168.5,122.5C 169.205,119.756 169.205,117.089 168.5,114.5C 167.527,118.989 166.193,119.322 164.5,115.5C 163.675,114.614 162.675,114.281 161.5,114.5C 161.769,116.429 161.269,118.095 160,119.5C 159.667,118.833 159.333,118.167 159,117.5C 157.647,119.434 156.147,121.267 154.5,123C 155.687,124.019 156.687,125.186 157.5,126.5C 156.675,127.386 155.675,127.719 154.5,127.5C 153.516,122.342 152.683,122.342 152,127.5C 150.907,125.651 149.574,123.984 148,122.5C 147.28,124.112 147.446,125.612 148.5,127C 147.552,127.483 146.552,127.649 145.5,127.5C 145.715,125.821 145.048,124.821 143.5,124.5C 148.641,113.746 153.975,103.079 159.5,92.5C 160.308,89.5498 161.642,86.8831 163.5,84.5C 164.117,84.3893 164.617,84.056 165,83.5C 165.051,86.2766 165.218,88.9433 165.5,91.5C 166.167,87.5 166.833,83.5 167.5,79.5C 168.396,80.5063 169.062,80.5063 169.5,79.5C 168.572,78.2322 168.405,76.8989 169,75.5C 169.98,76.9814 171.147,78.3147 172.5,79.5C 172.669,77.8827 173.003,76.216 173.5,74.5C 174.192,75.0253 174.692,75.6919 175,76.5C 177.506,74.1365 180.339,72.4698 183.5,71.5C 183.5,70.1667 183.5,68.8333 183.5,67.5C 187.101,66.5367 190.767,65.87 194.5,65.5C 194.633,68.8957 195.633,69.2291 197.5,66.5C 197.833,67 198.167,67.5 198.5,68C 198.011,69.1385 197.678,70.3052 197.5,71.5 Z"/></g>
<g><path style="opacity:1" fill="rgba(255, 255, 255,0.3)" d="M 159.5,92.5 C 153.975,103.079 148.641,113.746 143.5,124.5C 137.984,135.029 132.651,145.696 127.5,156.5C 126.503,156.53 125.836,156.03 125.5,155C 127.361,149.906 129.694,145.073 132.5,140.5C 132.167,139.833 131.833,139.167 131.5,138.5C 130.403,140.229 129.237,141.896 128,143.5C 127.833,141.667 127.667,139.833 127.5,138C 128.113,134.458 128.78,130.958 129.5,127.5C 126.48,126.237 123.646,124.57 121,122.5C 118.708,123.931 116.208,124.764 113.5,125C 114.756,125.417 115.423,126.25 115.5,127.5C 111.148,127.677 106.981,128.677 103,130.5C 100.347,127.916 99.847,124.916 101.5,121.5C 102.924,119.485 103.59,117.152 103.5,114.5C 104.177,107.789 105.177,101.122 106.5,94.5C 108.598,95.9143 109.598,95.2476 109.5,92.5C 108.5,92.5 107.5,92.5 106.5,92.5C 106.5,91.5 106.5,90.5 106.5,89.5C 109.093,90.8528 111.927,91.5195 115,91.5C 124.628,88.6711 134.461,87.1711 144.5,87C 146.5,86.3333 147.833,85 148.5,83C 152.309,80.622 155.642,81.122 158.5,84.5C 159.192,83.9747 159.692,83.3081 160,82.5C 160.539,87.1555 159.039,88.1555 155.5,85.5C 151.447,86.0134 149.447,88.3468 149.5,92.5C 148.719,91.2634 147.719,90.2634 146.5,89.5C 146.931,92.0479 146.931,94.7146 146.5,97.5C 146.833,98.1667 147.167,98.8333 147.5,99.5C 148.386,98.675 148.719,97.675 148.5,96.5C 149.5,96.5 150.5,96.5 151.5,96.5C 152.173,89.7143 154.84,88.381 159.5,92.5 Z"/></g>
<g><path style="opacity:1" fill="#000" d="M 106.5,94.5 C 105.177,101.122 104.177,107.789 103.5,114.5C 103.167,114.5 102.833,114.5 102.5,114.5C 102.649,113.448 102.483,112.448 102,111.5C 99.6073,116.611 97.774,121.944 96.5,127.5C 96.0509,124.956 96.0509,122.29 96.5,119.5C 99.0232,113.764 100.19,107.764 100,101.5C 97.5921,105.455 96.2588,109.788 96,114.5C 95.5034,112.19 95.3367,109.857 95.5,107.5C 92.4816,107.335 89.4816,107.502 86.5,108C 85.1667,108.667 85.1667,109.333 86.5,110C 88.1667,110.333 89.8333,110.667 91.5,111C 87.5138,111.499 83.5138,111.666 79.5,111.5C 79.5,112.833 79.5,114.167 79.5,115.5C 77.8008,115.34 76.1341,115.506 74.5,116C 70.8049,119.177 66.8049,121.844 62.5,124C 63.6166,126.425 65.1166,128.591 67,130.5C 68.3287,129.506 69.662,128.506 71,127.5C 71.5,127.833 72,128.167 72.5,128.5C 69.3744,131.536 67.3744,135.202 66.5,139.5C 61.0241,130.556 56.0241,121.222 51.5,111.5C 51.6147,101.599 53.6147,101.099 57.5,110C 56.4105,114.977 57.5772,119.477 61,123.5C 61.1805,121.512 61.0138,119.512 60.5,117.5C 61.3414,115.621 61.6747,113.621 61.5,111.5C 64.1873,111.664 66.854,111.497 69.5,111C 70.8762,106.123 73.8762,102.623 78.5,100.5C 79.3857,101.325 79.719,102.325 79.5,103.5C 83.1419,102.92 86.8086,102.42 90.5,102C 87.971,100.938 85.3043,100.105 82.5,99.5C 85.8435,98.2429 89.1769,98.2429 92.5,99.5C 93.5,99 94.5,98.5 95.5,98C 94.0577,97.6232 93.0577,96.7899 92.5,95.5C 97.1522,95.0019 101.819,94.6686 106.5,94.5 Z"/></g>
<g><path style="opacity:1" fill="#000" d="M 96.5,119.5 C 91.3556,121.823 88.1889,125.823 87,131.5C 85.2845,134.397 82.7845,135.731 79.5,135.5C 79.2282,129.118 78.2282,128.952 76.5,135C 76.8333,135.333 77.1667,135.667 77.5,136C 75.8198,136.347 74.8198,137.347 74.5,139C 76.1887,140.358 77.522,142.025 78.5,144C 75.8955,145.907 74.2288,148.407 73.5,151.5C 71.1816,147.535 68.8483,143.535 66.5,139.5C 67.3744,135.202 69.3744,131.536 72.5,128.5C 72,128.167 71.5,127.833 71,127.5C 69.662,128.506 68.3287,129.506 67,130.5C 65.1166,128.591 63.6166,126.425 62.5,124C 66.8049,121.844 70.8049,119.177 74.5,116C 76.1341,115.506 77.8008,115.34 79.5,115.5C 79.5,114.167 79.5,112.833 79.5,111.5C 83.5138,111.666 87.5138,111.499 91.5,111C 89.8333,110.667 88.1667,110.333 86.5,110C 85.1667,109.333 85.1667,108.667 86.5,108C 89.4816,107.502 92.4816,107.335 95.5,107.5C 95.3367,109.857 95.5034,112.19 96,114.5C 96.2588,109.788 97.5921,105.455 100,101.5C 100.19,107.764 99.0232,113.764 96.5,119.5 Z"/></g>
<g><path style="opacity:1" fill="#000" d="M 102.5,114.5 C 102.833,114.5 103.167,114.5 103.5,114.5C 103.59,117.152 102.924,119.485 101.5,121.5C 101.674,119.139 102.007,116.806 102.5,114.5 Z"/></g>
<g><path style="opacity:1" fill="#000" d="M 102.5,114.5 C 102.007,116.806 101.674,119.139 101.5,121.5C 99.847,124.916 100.347,127.916 103,130.5C 106.981,128.677 111.148,127.677 115.5,127.5C 117.591,126.197 119.257,126.697 120.5,129C 119.212,135.983 117.546,142.817 115.5,149.5C 111.677,143.932 110.677,144.599 112.5,151.5C 111.877,153.814 111.544,153.481 111.5,150.5C 109.801,150.34 108.134,150.506 106.5,151C 107.167,151.333 107.833,151.667 108.5,152C 106.157,153.746 104.157,153.579 102.5,151.5C 99.9082,154.543 96.5748,156.376 92.5,157C 89.3533,159.805 87.02,163.139 85.5,167C 86.7932,167.49 88.1266,167.657 89.5,167.5C 89.3059,170.33 88.6392,172.996 87.5,175.5C 82.3277,167.826 77.6611,159.826 73.5,151.5C 74.2288,148.407 75.8955,145.907 78.5,144C 77.522,142.025 76.1887,140.358 74.5,139C 74.8198,137.347 75.8198,136.347 77.5,136C 77.1667,135.667 76.8333,135.333 76.5,135C 78.2282,128.952 79.2282,129.118 79.5,135.5C 82.7845,135.731 85.2845,134.397 87,131.5C 88.1889,125.823 91.3556,121.823 96.5,119.5C 96.0509,122.29 96.0509,124.956 96.5,127.5C 97.774,121.944 99.6073,116.611 102,111.5C 102.483,112.448 102.649,113.448 102.5,114.5 Z"/></g>
<g><path style="opacity:1" fill="rgba(255, 255, 255,0.3)" d="M 127.5,156.5 C 124.016,162.636 121.016,168.97 118.5,175.5C 117.002,178.331 114.669,179.998 111.5,180.5C 111.5,177.167 111.5,173.833 111.5,170.5C 112.222,170.082 112.722,169.416 113,168.5C 113.788,162.15 114.621,155.817 115.5,149.5C 117.546,142.817 119.212,135.983 120.5,129C 119.257,126.697 117.591,126.197 115.5,127.5C 115.423,126.25 114.756,125.417 113.5,125C 116.208,124.764 118.708,123.931 121,122.5C 123.646,124.57 126.48,126.237 129.5,127.5C 128.78,130.958 128.113,134.458 127.5,138C 127.667,139.833 127.833,141.667 128,143.5C 129.237,141.896 130.403,140.229 131.5,138.5C 131.833,139.167 132.167,139.833 132.5,140.5C 129.694,145.073 127.361,149.906 125.5,155C 125.836,156.03 126.503,156.53 127.5,156.5 Z"/></g>
<g><path style="opacity:1" fill="#000" d="M 115.5,149.5 C 114.621,155.817 113.788,162.15 113,168.5C 112.722,169.416 112.222,170.082 111.5,170.5C 112.221,167.183 112.388,163.849 112,160.5C 110.069,163.729 107.236,165.896 103.5,167C 104.624,167.249 105.624,167.749 106.5,168.5C 105.627,170.413 104.627,172.247 103.5,174C 103.833,174.333 104.167,174.667 104.5,175C 101.518,175.498 98.5184,175.665 95.5,175.5C 95.5,176.5 95.5,177.5 95.5,178.5C 94.1779,178.33 93.0113,178.663 92,179.5C 92.0187,181.107 92.1854,182.774 92.5,184.5C 90.4405,181.76 88.7738,178.76 87.5,175.5C 88.6392,172.996 89.3059,170.33 89.5,167.5C 88.1266,167.657 86.7932,167.49 85.5,167C 87.02,163.139 89.3533,159.805 92.5,157C 96.5748,156.376 99.9082,154.543 102.5,151.5C 104.157,153.579 106.157,153.746 108.5,152C 107.833,151.667 107.167,151.333 106.5,151C 108.134,150.506 109.801,150.34 111.5,150.5C 111.544,153.481 111.877,153.814 112.5,151.5C 110.677,144.599 111.677,143.932 115.5,149.5 Z"/></g>
<g><path style="opacity:1" fill="#000" d="M 161.5,135.5 C 150.924,156.325 139.59,176.659 127.5,196.5C 127.335,192.818 127.501,189.152 128,185.5C 128.249,186.624 128.749,187.624 129.5,188.5C 130.228,186.807 131.228,185.307 132.5,184C 130.315,181.465 128.482,178.631 127,175.5C 126.052,177.57 124.552,179.07 122.5,180C 123.38,181.356 123.714,182.856 123.5,184.5C 121.857,184.52 120.524,183.853 119.5,182.5C 118.522,182.977 117.689,183.643 117,184.5C 117.927,181.682 118.427,178.682 118.5,175.5C 121.016,168.97 124.016,162.636 127.5,156.5C 132.651,145.696 137.984,135.029 143.5,124.5C 145.048,124.821 145.715,125.821 145.5,127.5C 146.552,127.649 147.552,127.483 148.5,127C 147.446,125.612 147.28,124.112 148,122.5C 149.574,123.984 150.907,125.651 152,127.5C 152.683,122.342 153.516,122.342 154.5,127.5C 155.675,127.719 156.675,127.386 157.5,126.5C 156.687,125.186 155.687,124.019 154.5,123C 156.147,121.267 157.647,119.434 159,117.5C 159.333,118.167 159.667,118.833 160,119.5C 161.269,118.095 161.769,116.429 161.5,114.5C 162.675,114.281 163.675,114.614 164.5,115.5C 166.193,119.322 167.527,118.989 168.5,114.5C 169.205,117.089 169.205,119.756 168.5,122.5C 166.362,122.297 164.695,121.297 163.5,119.5C 163.167,119.833 162.833,120.167 162.5,120.5C 161.878,123.37 161.211,126.204 160.5,129C 161.308,129.308 161.975,129.808 162.5,130.5C 161.691,132.071 161.357,133.738 161.5,135.5 Z"/></g>
<g><path style="opacity:1" fill="#000" d="M 111.5,170.5 C 111.5,173.833 111.5,177.167 111.5,180.5C 114.669,179.998 117.002,178.331 118.5,175.5C 118.427,178.682 117.927,181.682 117,184.5C 117.689,183.643 118.522,182.977 119.5,182.5C 120.524,183.853 121.857,184.52 123.5,184.5C 123.714,182.856 123.38,181.356 122.5,180C 124.552,179.07 126.052,177.57 127,175.5C 128.482,178.631 130.315,181.465 132.5,184C 131.228,185.307 130.228,186.807 129.5,188.5C 128.749,187.624 128.249,186.624 128,185.5C 127.501,189.152 127.335,192.818 127.5,196.5C 124.49,203.351 120.824,209.851 116.5,216C 112.392,217.335 109.392,216.168 107.5,212.5C 102.529,203.184 97.5286,193.85 92.5,184.5C 92.1854,182.774 92.0187,181.107 92,179.5C 93.0113,178.663 94.1779,178.33 95.5,178.5C 95.5,177.5 95.5,176.5 95.5,175.5C 98.5184,175.665 101.518,175.498 104.5,175C 104.167,174.667 103.833,174.333 103.5,174C 104.627,172.247 105.627,170.413 106.5,168.5C 105.624,167.749 104.624,167.249 103.5,167C 107.236,165.896 110.069,163.729 112,160.5C 112.388,163.849 112.221,167.183 111.5,170.5 Z"/></g>
</svg>
