<?xml version="1.0" encoding="UTF-8"?>
<!DOCTYPE svg PUBLIC "-//W3C//DTD SVG 1.1//EN" "http://www.w3.org/Graphics/SVG/1.1/DTD/svg11.dtd">
<svg xmlns="http://www.w3.org/2000/svg" version="1.1" width="512px" height="512px" style="shape-rendering:geometricPrecision; text-rendering:geometricPrecision; image-rendering:optimizeQuality; fill-rule:evenodd; clip-rule:evenodd" xmlns:xlink="http://www.w3.org/1999/xlink">
<g><path style="opacity:0.979" fill="#000000" d="M 252.5,31.5 C 261.147,31.1048 268.814,33.6048 275.5,39C 303.333,66.8333 331.167,94.6667 359,122.5C 368.707,136.342 367.207,148.842 354.5,160C 345.167,166 335.833,166 326.5,160C 303.528,138.028 280.861,115.695 258.5,93C 257.167,92.3333 255.833,92.3333 254.5,93C 200.694,145.806 147.194,198.972 94,252.5C 92.2994,255.249 92.6327,257.916 95,260.5C 147.527,313.361 200.361,365.861 253.5,418C 255.5,418.667 257.5,418.667 259.5,418C 281.5,396 303.5,374 325.5,352C 341.06,343.526 353.56,346.692 363,361.5C 366.778,370.718 365.778,379.385 360,387.5C 331.167,416.333 302.333,445.167 273.5,474C 261.833,481.333 250.167,481.333 238.5,474C 171.333,406.833 104.167,339.667 37,272.5C 30.197,262.06 29.8636,251.394 36,240.5C 103.833,172.667 171.667,104.833 239.5,37C 243.561,34.2655 247.894,32.4321 252.5,31.5 Z"/></g>
<g><path style="opacity:0.972" fill="#000000" d="M 392.5,168.5 C 400.221,168.905 406.888,171.739 412.5,177C 432.667,197.167 452.833,217.333 473,237.5C 482.104,249.011 482.771,261.011 475,273.5C 453.167,295.333 431.333,317.167 409.5,339C 396.529,346.812 384.696,345.312 374,334.5C 368,324.5 368,314.5 374,304.5C 388.333,290.167 402.667,275.833 417,261.5C 419.321,258.942 419.654,256.275 418,253.5C 403.667,239.167 389.333,224.833 375,210.5C 366.333,199.167 366.333,187.833 375,176.5C 380.115,172.022 385.949,169.355 392.5,168.5 Z"/></g>
<g><path style="opacity:0.981" fill="#000000" d="M 248.5,203.5 C 281.363,201.829 301.863,216.829 310,248.5C 312.191,282.97 296.358,303.47 262.5,310C 230.568,310.787 211.068,295.62 204,264.5C 202.272,231.919 217.105,211.586 248.5,203.5 Z"/></g>
</svg>
